<?xml version="1.0" standalone="no"?>
<!DOCTYPE svg PUBLIC "-//W3C//DTD SVG 20010904//EN"
 "http://www.w3.org/TR/2001/REC-SVG-20010904/DTD/svg10.dtd">
<svg version="1.0" xmlns="http://www.w3.org/2000/svg"
 width="687.000000pt" height="638.000000pt" viewBox="0 0 687.000000 638.000000"
 preserveAspectRatio="xMidYMid meet">

<g transform="translate(0.000000,638.000000) scale(0.100000,-0.100000)"
fill="#000000" stroke="none">
<path d="M3398 5843 l-38 -4 0 -170 0 -169 40 0 39 0 3 175 c2 96 1 174 -2
173 -3 -1 -22 -3 -42 -5z"/>
<path d="M3671 5628 c-10 -79 -10 -93 4 -115 35 -53 108 -52 159 1 18 19 27
24 23 13 -21 -56 -20 -67 4 -67 13 0 34 -3 47 -6 21 -6 22 -3 22 42 0 27 7 80
15 119 8 38 15 71 15 71 0 1 -19 2 -43 2 l-43 1 -12 -67 c-12 -70 -28 -92 -68
-92 -44 0 -55 37 -41 136 l7 52 -38 0 -39 1 -12 -91z"/>
<path d="M2903 5689 c-40 -20 -73 -66 -73 -103 0 -35 30 -86 62 -106 92 -56
248 11 248 106 0 42 -22 87 -52 108 -33 24 -133 21 -185 -5z m136 -55 c28 -35
26 -69 -4 -99 -49 -50 -115 -19 -115 54 0 30 6 44 22 55 34 24 73 20 97 -10z"/>
<path d="M4232 5701 c-8 -4 -12 -19 -10 -32 4 -29 59 -49 83 -29 24 20 17 40
-20 56 -40 16 -36 16 -53 5z"/>
<path d="M4176 5515 c-15 -58 -36 -115 -46 -128 -16 -20 -22 -21 -49 -10 -29
10 -31 10 -37 -12 -8 -33 0 -43 48 -56 34 -9 48 -8 74 4 29 14 36 27 75 144
23 70 43 130 43 131 1 2 -17 10 -39 18 -22 7 -40 14 -40 14 0 0 -13 -47 -29
-105z"/>
<path d="M2444 5566 c-19 -19 -34 -43 -34 -54 0 -12 -4 -24 -10 -27 -6 -3 -10
4 -10 17 0 44 -13 51 -53 28 l-35 -21 22 -52 c13 -29 36 -92 52 -142 15 -49
29 -91 30 -93 1 -4 68 20 77 28 4 4 -1 28 -13 54 l-20 48 29 -7 c31 -7 93 14
123 42 48 43 41 142 -13 187 -46 39 -101 36 -145 -8z m94 -55 c22 -27 26 -63
11 -90 -14 -26 -73 -53 -95 -44 -17 6 -34 50 -34 87 0 64 79 97 118 47z"/>
<path d="M1973 5361 c-23 -11 -62 -38 -87 -61 -44 -41 -44 -41 -28 -70 l16
-28 38 43 c46 52 87 72 117 55 30 -15 27 -23 -19 -49 -59 -33 -100 -78 -100
-110 0 -36 17 -51 60 -51 58 0 119 53 120 104 0 19 1 19 21 1 19 -18 21 -18
53 -1 l34 18 -37 51 c-55 78 -96 117 -122 117 -13 0 -43 -9 -66 -19z m106
-119 c13 -25 -8 -55 -49 -72 -61 -25 -66 27 -7 67 40 27 44 27 56 5z"/>
<path d="M4789 5312 c-13 -26 -41 -69 -61 -96 l-37 -50 37 -22 36 -22 33 49
c54 80 106 99 134 48 13 -25 5 -51 -34 -113 -30 -47 -30 -49 -11 -63 49 -37
49 -37 98 47 26 45 46 92 46 109 0 62 -103 106 -156 66 -33 -25 -37 -16 -9 21
15 19 25 36 24 37 -2 2 -20 10 -40 19 l-35 16 -25 -46z"/>
<path d="M1544 5177 c-6 -16 -142 -144 -229 -214 l-40 -33 28 -27 27 -28 95
95 c52 52 97 92 100 89 6 -7 -27 -174 -51 -261 -16 -54 -15 -58 3 -82 l20 -24
140 127 140 128 -25 28 -24 29 -85 -92 c-47 -51 -89 -92 -95 -92 -12 0 -8 26
29 198 l26 124 -26 26 c-23 22 -27 24 -33 9z"/>
<path d="M5227 5014 c-22 -30 -22 -31 12 -37 31 -6 86 -48 102 -78 7 -13 6
-26 -2 -40 -11 -21 -12 -20 -52 19 -23 23 -59 48 -80 57 -35 15 -41 15 -63 0
-57 -37 -1 -141 83 -152 37 -5 40 -7 30 -24 -9 -15 -7 -23 13 -44 13 -14 27
-25 30 -25 4 0 33 32 64 71 77 97 77 120 -1 198 -32 32 -72 62 -88 68 -27 9
-32 7 -48 -13z m45 -150 c42 -29 48 -48 20 -63 -34 -18 -107 47 -87 79 10 16
26 12 67 -16z"/>
<path d="M3710 4933 c-55 -63 -101 -162 -107 -232 -5 -55 -4 -58 27 -84 17
-15 38 -27 45 -27 20 0 73 48 90 81 28 53 16 63 -19 17 -40 -52 -92 -80 -107
-57 -14 22 -10 49 17 124 13 39 26 74 27 79 4 20 86 116 98 116 15 0 10 -39
-7 -66 -23 -35 -10 -41 20 -11 30 30 33 53 10 85 -23 33 -48 27 -94 -25z"/>
<path d="M2613 4936 c-45 -55 -86 -146 -91 -201 -3 -41 0 -53 17 -69 25 -23
40 -13 82 53 l28 43 3 -73 3 -74 29 0 c21 0 31 6 38 24 8 24 8 24 -10 8 -10
-9 -22 -17 -26 -17 -16 0 6 136 30 189 22 50 24 71 5 71 -5 0 -28 -30 -52 -67
-47 -73 -96 -133 -109 -133 -13 0 13 104 38 150 43 79 102 127 102 84 0 -16
21 -15 27 2 4 11 -48 44 -70 44 -9 0 -28 -15 -44 -34z"/>
<path d="M2965 4933 c-29 -67 -86 -266 -83 -287 6 -41 25 -24 39 35 l14 62 38
-61 c48 -77 89 -109 122 -94 13 6 29 21 36 34 9 19 9 21 -2 11 -27 -26 -56
-14 -113 48 -31 33 -56 63 -56 67 0 4 23 25 50 47 60 47 122 123 118 144 -5
24 -24 23 -35 -1 -15 -32 -78 -103 -114 -128 l-29 -22 30 82 c16 46 27 87 24
91 -11 18 -24 8 -39 -28z"/>
<path d="M3341 4935 c-78 -89 -119 -231 -79 -271 23 -23 41 -13 83 48 l36 53
-5 -58 c-3 -33 -1 -68 5 -78 12 -23 54 -25 63 -3 10 25 6 41 -5 22 -41 -70
-36 93 5 176 24 48 25 66 6 66 -5 0 -36 -39 -68 -87 -59 -88 -102 -136 -102
-115 0 41 28 126 59 176 45 73 66 89 87 62 10 -14 17 -17 25 -9 7 7 3 17 -17
32 -37 29 -57 26 -93 -14z"/>
<path d="M4386 4945 c-3 -8 -15 -15 -26 -15 -23 0 -27 -18 -6 -26 12 -5 11
-15 -6 -65 -12 -35 -26 -59 -34 -59 -8 0 -14 -4 -14 -10 0 -5 4 -10 10 -10 5
0 -1 -29 -15 -65 -27 -72 -25 -92 12 -101 18 -5 36 2 66 23 59 44 58 59 -3 28
-29 -14 -54 -25 -56 -22 -2 2 7 35 19 72 23 68 25 70 68 81 l44 12 -37 1 c-21
1 -38 3 -38 5 0 2 10 29 21 60 20 52 25 57 63 66 95 24 103 30 35 24 -43 -3
-69 -1 -74 5 -9 15 -22 14 -29 -4z"/>
<path d="M2147 4938 c-2 -7 -2 -26 0 -43 3 -16 -5 -73 -17 -125 -13 -52 -25
-105 -27 -117 -4 -18 -1 -23 13 -23 13 0 32 23 58 70 22 38 52 84 66 102 l28
33 -15 -70 c-17 -83 -14 -139 7 -143 10 -1 31 30 64 95 27 53 71 125 98 161
27 35 47 67 44 70 -14 13 -72 -66 -146 -199 l-41 -74 7 60 c4 33 12 79 19 103
14 45 5 63 -21 41 -9 -7 -38 -46 -67 -86 -28 -40 -52 -71 -54 -70 -1 2 5 41
14 88 9 47 13 97 9 112 -7 28 -31 37 -39 15z"/>
<path d="M4155 4942 c-6 -5 -41 -19 -80 -32 -88 -28 -95 -34 -67 -62 24 -24
43 -18 22 7 -16 19 -7 28 39 44 59 19 61 16 32 -56 -15 -38 -41 -101 -56 -142
-27 -68 -47 -93 -62 -77 -4 3 -15 37 -25 74 l-18 67 4 -61 c4 -69 21 -102 55
-111 32 -8 52 19 92 127 17 47 47 114 65 150 19 35 34 68 34 72 0 11 -24 10
-35 0z"/>
<path d="M1333 4571 c-49 -63 -172 -251 -216 -331 -483 -887 -404 -1970 202
-2773 418 -554 1032 -911 1724 -1002 156 -20 488 -20 644 0 748 99 1399 505
1818 1135 86 129 205 365 260 514 286 777 188 1626 -268 2311 -84 127 -125
175 -149 175 -20 0 -19 -1 6 -32 75 -95 215 -318 275 -442 193 -395 269 -749
258 -1191 -10 -396 -81 -681 -256 -1040 -248 -505 -651 -908 -1156 -1155 -248
-122 -481 -195 -750 -236 -148 -23 -541 -26 -680 -6 -222 32 -398 77 -585 149
-885 340 -1509 1153 -1610 2095 -13 125 -13 412 0 536 44 408 183 787 411
1126 49 72 101 146 115 164 l27 32 -24 -1 c-14 0 -33 -12 -46 -28z"/>
<path d="M1429 4522 c-229 -317 -372 -673 -436 -1082 -24 -161 -24 -499 1
-665 201 -1334 1444 -2241 2766 -2019 396 66 792 245 1105 499 392 318 676
755 804 1235 60 225 81 390 81 632 0 349 -66 659 -208 975 -93 208 -284 503
-325 503 -17 0 -18 -2 -6 -19 233 -317 350 -552 433 -872 60 -232 71 -324 71
-604 -1 -216 -4 -268 -23 -378 -104 -578 -398 -1080 -850 -1450 -178 -145
-453 -300 -675 -382 -413 -151 -910 -180 -1342 -78 -448 105 -838 330 -1165
669 -346 359 -558 798 -637 1314 -23 159 -23 470 1 640 57 393 204 752 438
1068 60 81 65 92 45 92 -16 0 -37 -22 -78 -78z"/>
<path d="M3175 4276 l-90 -12 152 2 c118 2 171 -2 235 -17 92 -20 199 -54 240
-75 33 -17 35 -17 35 0 0 8 -3 14 -6 13 -3 -1 -15 4 -27 10 -51 29 -199 70
-279 77 -133 13 -177 14 -260 2z"/>
<path d="M3318 4185 c-4 -4 -24 -9 -44 -11 -20 -2 -44 -10 -54 -19 -9 -8 -20
-15 -24 -15 -4 0 -26 -15 -49 -34 -27 -22 -61 -38 -96 -45 -68 -14 -81 -25
-81 -66 0 -48 9 -65 36 -65 28 0 74 20 74 32 0 13 -23 9 -44 -7 -27 -21 -35
-19 -47 11 -14 39 8 68 56 72 21 1 44 7 51 13 8 6 21 9 29 5 9 -3 14 -2 10 3
-7 12 73 78 100 83 11 1 23 7 27 13 4 5 40 9 80 9 60 0 83 -5 127 -28 29 -15
50 -23 46 -17 -3 6 -1 11 5 11 18 0 100 -42 100 -51 0 -12 -1 -12 -42 6 -23 9
-45 11 -63 6 l-29 -7 24 -17 c27 -19 44 -22 35 -7 -8 12 1 13 42 1 18 -5 42
-7 53 -4 20 5 20 6 3 25 -25 28 -80 54 -131 63 -23 4 -55 13 -71 21 -34 17
-113 29 -123 19z"/>
<path d="M3760 4174 c0 -11 43 -44 57 -44 24 0 14 16 -22 33 -19 9 -35 14 -35
11z"/>
<path d="M3834 4129 c-3 -6 -4 -11 -3 -13 2 -1 25 -15 51 -31 26 -16 44 -33
42 -37 -3 -4 3 -8 14 -8 10 0 43 -22 73 -49 109 -99 130 -114 139 -105 16 16
-142 150 -267 227 -27 17 -44 23 -49 16z"/>
<path d="M2564 4099 c-116 -61 -264 -185 -250 -208 11 -18 20 -13 77 40 47 45
154 129 229 181 41 28 7 20 -56 -13z"/>
<path d="M3297 4104 c3 -8 0 -14 -6 -14 -6 0 -8 -7 -5 -15 4 -10 2 -14 -7 -10
-8 3 -28 -8 -45 -23 -25 -22 -29 -31 -22 -48 14 -30 -20 -98 -49 -102 -17 -3
-24 3 -29 22 -7 28 -31 53 -41 42 -3 -3 1 -14 10 -24 10 -10 17 -26 17 -36 0
-9 7 -19 15 -22 20 -8 67 9 75 27 4 8 12 25 19 37 7 13 9 36 6 52 -5 24 -2 32
22 46 15 10 37 26 49 36 12 11 28 16 38 12 14 -5 12 -11 -14 -41 -19 -21 -30
-44 -28 -56 3 -23 0 -22 128 -27 49 -2 46 -5 -12 -15 -29 -4 -38 -11 -38 -25
0 -16 -7 -20 -34 -20 -29 0 -36 -5 -44 -29 l-10 -29 -88 3 c-52 2 -90 7 -92
14 -8 24 -39 54 -50 47 -7 -4 -12 -22 -12 -40 0 -31 -3 -34 -39 -40 -26 -4
-57 -21 -92 -51 -28 -24 -57 -42 -62 -38 -6 3 -7 1 -3 -5 5 -8 15 -8 32 -2 14
6 30 7 36 4 6 -4 8 -2 5 3 -4 6 7 24 23 41 22 23 39 32 72 34 43 3 43 3 41 41
-3 44 11 49 25 8 10 -27 36 -38 97 -41 39 -2 135 15 136 24 1 6 2 18 3 26 1
11 10 14 32 12 27 -3 33 1 41 24 8 24 14 28 54 28 40 1 44 3 44 25 0 13 -6 26
-14 29 -8 3 -11 0 -8 -5 4 -6 -16 -9 -51 -7 -31 2 -67 3 -80 4 -18 0 -23 5
-20 23 4 27 30 48 72 56 l30 7 -38 18 c-62 29 -96 37 -89 20z"/>
<path d="M3552 4038 c3 -7 19 -20 38 -31 28 -15 37 -16 56 -7 12 7 27 9 34 5
7 -4 14 1 17 14 3 12 12 21 21 21 8 0 12 3 9 7 -4 3 -18 1 -32 -5 -14 -7 -36
-17 -49 -23 -20 -10 -29 -8 -54 10 -34 24 -45 26 -40 9z"/>
<path d="M3744 4028 c1 -7 16 -15 32 -16 16 -2 34 -7 39 -11 18 -14 45 -21 45
-12 0 11 -55 31 -86 31 -12 0 -25 5 -27 10 -3 6 -4 5 -3 -2z"/>
<path d="M2248 3838 c-80 -96 -150 -206 -197 -313 l-13 -30 22 20 c11 10 19
24 16 31 -3 8 1 11 10 7 20 -7 19 -10 -21 -44 -36 -32 -63 -98 -90 -224 -27
-126 -28 -163 -8 -189 l19 -24 13 87 c16 111 41 205 82 311 18 47 34 87 34 90
4 22 131 213 176 264 29 32 35 46 27 54 -18 18 -24 15 -70 -40z"/>
<path d="M2716 3879 c3 -5 12 -9 20 -9 20 0 18 -13 -6 -33 -11 -9 -20 -24 -20
-32 0 -9 -9 -15 -25 -15 -14 0 -25 -4 -25 -9 0 -11 -31 -24 -38 -16 -3 3 2 11
11 18 19 14 37 74 18 63 -6 -4 -11 -13 -11 -20 0 -7 -9 -21 -20 -31 -44 -40
-9 -56 55 -25 25 12 45 26 45 31 0 4 10 17 21 28 25 23 20 46 -10 54 -12 3
-19 1 -15 -4z"/>
<path d="M2676 3872 c-3 -5 1 -9 9 -9 8 0 15 4 15 9 0 4 -4 8 -9 8 -6 0 -12
-4 -15 -8z"/>
<path d="M4155 3870 c-3 -5 7 -24 24 -42 42 -47 138 -177 156 -213 22 -43 40
-65 56 -65 9 0 10 -3 2 -11 -11 -11 -6 -59 7 -59 9 0 77 -165 83 -201 2 -13 6
-31 9 -39 3 -8 11 -41 18 -73 7 -36 15 -55 22 -51 7 5 8 2 3 -6 -4 -7 -7 -74
-6 -149 2 -103 6 -140 17 -151 12 -12 14 2 14 115 0 127 -8 192 -37 310 -27
110 -73 229 -100 257 -27 28 -24 40 3 13 13 -12 22 -9 78 26 114 71 176 151
157 202 -12 32 -30 43 -44 27 -9 -10 -9 -14 1 -17 6 -3 12 -18 12 -34 0 -36
-56 -94 -126 -129 -27 -14 -58 -32 -68 -40 -13 -10 -20 -11 -23 -4 -21 62
-224 344 -247 344 -3 0 -8 -4 -11 -10z"/>
<path d="M3622 3815 c-6 -14 -8 -25 -3 -25 9 0 36 -57 30 -62 -3 -3 11 -22 48
-63 10 -12 15 -16 11 -10 -3 5 -22 41 -42 78 -32 63 -38 97 -14 97 10 0 107
-96 203 -200 33 -36 93 -99 133 -142 l74 -76 -76 -52 c-44 -29 -82 -48 -89
-44 -6 4 -9 4 -5 -1 9 -9 -4 -22 -65 -64 -26 -18 -54 -30 -62 -27 -10 3 -12 0
-8 -11 5 -13 2 -15 -11 -10 -10 4 -15 3 -11 -3 7 -11 -29 -32 -39 -23 -3 3 -6
-1 -6 -9 0 -9 -7 -18 -15 -22 -8 -3 -15 -10 -15 -15 0 -5 48 23 108 64 165
112 382 249 435 274 32 16 60 22 87 19 26 -2 36 0 29 7 -26 26 -126 -1 -220
-61 -26 -17 -27 -16 -62 22 -40 43 -45 59 -22 68 21 8 19 33 -6 67 -24 33 -28
35 -55 13 -18 -15 -18 -15 3 -5 18 9 25 7 42 -15 25 -32 27 -50 4 -58 -12 -5
-30 7 -61 39 -24 25 -48 45 -52 45 -19 0 -19 34 0 47 26 18 25 31 -4 67 l-23
30 -35 -21 -36 -21 -38 39 c-21 21 -34 39 -29 39 13 0 -67 49 -81 50 -6 0 -16
-11 -22 -25z m271 -126 c3 -13 -2 -23 -15 -30 -17 -9 -25 -6 -50 19 l-29 31
28 15 c25 13 30 13 45 0 9 -9 18 -24 21 -35z"/>
<path d="M4545 3762 c-53 -18 -115 -57 -115 -72 0 -5 28 4 63 19 34 15 74 33
90 39 15 6 27 16 27 22 0 13 -6 13 -65 -8z"/>
<path d="M3487 3739 c7 -7 15 -10 18 -7 3 3 -2 9 -12 12 -14 6 -15 5 -6 -5z"/>
<path d="M2798 3713 c-20 -2 -42 -11 -48 -18 -16 -19 -6 -45 17 -45 17 1 17 1
0 14 -12 10 -15 16 -7 21 6 4 14 4 17 1 3 -3 18 1 33 9 15 8 31 11 35 7 5 -4
5 -1 1 6 -4 6 -8 11 -9 10 -1 -1 -19 -3 -39 -5z"/>
<path d="M3170 3686 c0 -2 7 -7 16 -10 8 -3 12 -2 9 4 -6 10 -25 14 -25 6z"/>
<path d="M2796 3663 c-3 -4 3 -16 14 -28 17 -18 19 -27 10 -50 -8 -20 -15 -25
-28 -20 -36 16 -119 15 -132 0 -15 -18 1 -20 18 -3 8 8 15 8 27 -2 9 -7 15 -8
15 -2 0 13 54 -1 78 -20 10 -7 14 -9 10 -4 -3 4 2 16 13 27 24 24 23 86 -2 99
-9 5 -19 6 -23 3z"/>
<path d="M3157 3624 c-42 -23 -34 -62 21 -96 23 -16 46 -28 51 -28 4 0 16 -9
26 -20 10 -11 13 -20 7 -20 -7 0 -12 -6 -12 -14 0 -12 -20 -26 -36 -26 -2 0
-4 12 -4 26 0 17 -11 36 -31 53 -17 14 -49 43 -71 65 -38 36 -40 37 -58 21
-15 -13 -29 -16 -59 -11 -44 7 -71 0 -71 -19 0 -17 -33 -45 -53 -45 -9 0 -16
-3 -16 -7 3 -20 -3 -34 -27 -63 -15 -17 -24 -33 -21 -36 2 -3 15 9 28 27 13
17 41 48 62 68 20 20 37 43 37 50 0 11 11 12 49 8 33 -4 55 -1 68 8 18 13 24
10 64 -25 24 -22 51 -42 60 -45 20 -7 33 -48 24 -76 -11 -33 35 -19 77 23 l21
21 -27 24 c-15 12 -34 23 -42 23 -8 0 -14 4 -14 8 0 5 -11 14 -25 20 -26 12
-44 57 -28 73 5 5 35 -9 75 -36 51 -34 68 -51 71 -72 l4 -28 2 27 c1 23 -10
36 -64 76 -35 27 -62 52 -58 56 10 10 0 7 -30 -10z"/>
<path d="M3711 3618 c23 -19 51 -67 44 -77 -2 -5 2 -11 10 -15 19 -7 19 -2 -1
37 -20 39 -44 67 -57 67 -6 0 -4 -6 4 -12z"/>
<path d="M2647 3513 c-4 -3 -7 -33 -7 -66 0 -50 3 -58 16 -53 8 3 24 1 35 -5
23 -12 99 -3 99 13 0 5 -9 6 -21 3 -11 -4 -43 -4 -70 0 l-51 7 4 54 c2 30 4
54 3 54 -1 0 -5 -3 -8 -7z"/>
<path d="M3415 3500 c3 -5 -1 -10 -9 -10 -9 0 -16 -4 -16 -10 0 -5 -9 -19 -20
-30 -16 -16 -17 -20 -5 -20 9 0 21 11 27 25 21 47 75 23 80 -35 2 -27 8 -36
25 -38 12 -2 27 -10 33 -18 14 -16 86 -19 95 -4 4 6 -5 7 -24 4 -20 -4 -45 1
-75 16 -41 19 -46 25 -46 55 0 27 -6 37 -36 54 -19 12 -32 17 -29 11z"/>
<path d="M3795 3495 c4 -11 8 -26 8 -32 0 -7 4 -13 8 -13 8 0 44 -60 42 -70
-1 -3 5 -11 13 -18 22 -20 17 -7 -27 71 -42 75 -58 96 -44 62z"/>
<path d="M3300 3463 c0 -13 29 -38 35 -31 3 3 -4 13 -15 23 -11 10 -20 13 -20
8z"/>
<path d="M2950 3400 c-52 -7 -110 -25 -110 -33 0 -2 23 2 52 9 29 8 84 14 123
15 48 0 64 3 50 9 -23 10 -41 10 -115 0z"/>
<path d="M3090 3354 c0 -42 9 -51 60 -61 25 -5 45 -14 45 -21 0 -19 44 -45 86
-49 27 -3 39 -1 39 7 0 23 48 59 70 53 20 -5 35 -20 35 -35 0 -10 6 -11 27 -3
9 4 31 -1 48 -10 18 -9 29 -12 26 -6 -10 16 57 14 73 -1 9 -9 12 -9 7 -1 -3 6
2 14 12 17 30 10 67 58 70 93 4 36 -10 49 -35 34 -16 -9 -16 -10 5 -11 25 0
26 -5 12 -47 -18 -50 -60 -67 -152 -59 -58 5 -87 12 -109 28 -24 18 -32 20
-54 10 -14 -7 -31 -23 -37 -37 -15 -33 -46 -28 -102 17 -22 18 -56 34 -75 38
-31 5 -36 9 -36 32 0 14 -3 30 -7 34 -5 4 -8 -6 -8 -22z"/>
<path d="M2796 3359 c-16 -4 -40 -6 -55 -3 -19 4 -36 -3 -63 -23 -41 -32 -53
-50 -68 -111 -8 -33 -20 -48 -50 -67 -50 -31 -53 -42 -4 -13 40 24 63 54 70
94 7 40 20 60 57 87 25 19 42 24 78 22 25 -2 52 1 59 5 22 13 9 18 -24 9z"/>
<path d="M4320 3308 c-19 -16 -26 -26 -15 -20 18 9 64 53 54 52 -2 -1 -20 -15
-39 -32z"/>
<path d="M4210 3245 c-36 -19 -59 -34 -52 -35 7 0 17 -12 22 -26 6 -14 15 -22
21 -18 7 4 7 9 2 13 -5 3 -12 14 -16 24 -5 14 2 22 38 38 24 11 47 24 50 29 8
13 9 14 -65 -25z"/>
<path d="M4071 3179 c-36 -16 -71 -35 -79 -41 -7 -7 -21 -13 -30 -14 -10 -1
-89 -33 -177 -72 -88 -38 -168 -72 -178 -75 -17 -6 -18 -15 -13 -82 6 -74 -2
-94 -23 -57 -9 15 -10 15 -11 1 0 -20 29 -34 43 -20 5 5 9 42 8 81 -1 60 2 71
14 66 8 -3 15 -1 15 3 0 7 51 31 66 31 2 0 6 -17 9 -37 4 -21 11 -47 16 -58
l9 -20 -4 20 c-15 66 -17 104 -6 110 6 4 18 -1 25 -11 7 -11 21 -28 30 -39 16
-19 16 -19 4 5 -6 14 -18 33 -27 43 -14 15 -13 17 4 17 11 0 25 5 32 12 9 9
12 8 13 -8 0 -16 1 -16 10 4 5 13 13 20 19 17 5 -3 10 -1 10 4 0 6 9 11 20 11
11 0 20 4 20 9 0 5 14 12 30 16 17 4 30 11 30 16 0 5 11 7 25 5 15 -3 25 0 25
7 0 7 25 23 55 35 47 21 100 52 85 51 -3 0 -34 -14 -69 -30z"/>
<path d="M3430 3141 c0 -5 -7 -11 -15 -13 -13 -3 -12 -9 6 -42 12 -22 32 -48
45 -59 20 -15 22 -22 13 -38 -6 -11 -8 -25 -5 -32 3 -7 5 -6 5 3 1 19 58 75
124 120 26 18 47 38 47 43 0 5 -18 -6 -40 -23 -45 -36 -47 -35 -125 15 -30 19
-55 31 -55 26z m52 -53 c53 -36 58 -47 29 -65 -18 -11 -24 -7 -55 36 -54 73
-48 79 26 29z"/>
<path d="M4196 3123 c3 -16 16 -64 29 -108 13 -44 26 -95 30 -112 9 -46 26
-52 23 -9 -2 20 -6 36 -9 36 -4 0 -9 11 -11 25 -4 18 -1 25 11 26 10 0 12 2 4
6 -20 7 -16 19 10 30 13 6 24 19 24 30 0 21 -34 73 -49 73 -5 0 2 -14 16 -31
28 -33 24 -60 -10 -73 -24 -9 -28 -1 -29 49 0 23 -3 41 -8 38 -4 -2 -11 7 -17
21 -13 34 -22 33 -14 -1z"/>
<path d="M2471 3051 c-28 -55 -30 -64 -26 -157 3 -109 7 -120 76 -209 73 -94
82 -100 158 -102 36 -2 80 -5 97 -9 28 -5 94 17 94 32 0 2 -14 -3 -31 -12 -21
-11 -42 -14 -63 -9 -17 4 -55 6 -85 6 -43 -1 -62 4 -93 24 -21 14 -37 29 -35
34 1 5 -6 16 -15 23 -9 7 -18 20 -20 28 -2 8 -13 22 -24 32 -37 30 -50 76 -49
179 0 90 2 99 32 147 18 29 28 52 23 52 -5 0 -23 -26 -39 -59z"/>
<path d="M4010 3105 c0 -15 18 -40 24 -34 3 3 -1 14 -9 25 -8 10 -14 15 -15 9z"/>
<path d="M1945 3059 c-8 -34 3 -219 12 -219 21 0 32 43 32 125 0 59 -4 96 -13
108 -18 24 -23 22 -31 -14z"/>
<path d="M3936 3082 c-2 -4 6 -12 19 -18 22 -11 23 -10 12 7 -13 20 -23 24
-31 11z"/>
<path d="M4015 3050 c-31 -8 -28 -11 15 -13 18 -2 26 -9 28 -24 2 -13 8 -23
14 -23 6 0 8 -9 5 -20 -3 -11 -1 -18 3 -15 5 3 11 1 14 -3 7 -11 -58 -73 -104
-101 -19 -12 -30 -21 -23 -21 6 0 41 23 78 50 l65 51 10 -26 c6 -15 10 -31 10
-36 0 -5 4 -9 8 -9 9 0 36 -60 35 -79 -1 -8 2 -10 8 -4 5 5 6 18 2 29 -10 24
-134 254 -136 253 -1 -1 -15 -5 -32 -9z"/>
<path d="M4305 2969 c4 -5 1 -16 -5 -24 -8 -9 -8 -15 -2 -15 6 0 19 -3 29 -7
16 -6 16 -5 5 10 -8 9 -11 20 -8 26 3 5 -1 12 -10 15 -9 3 -12 2 -9 -5z"/>
<path d="M3520 2930 c6 -11 13 -20 15 -20 3 0 5 9 5 20 0 11 -7 20 -15 20 -13
0 -14 -4 -5 -20z"/>
<path d="M3801 2932 c0 -4 4 -16 8 -26 7 -19 8 -19 13 1 4 14 0 24 -8 27 -8 3
-14 2 -13 -2z"/>
<path d="M4340 2890 c8 -16 6 -22 -13 -35 -13 -8 -32 -13 -41 -9 -14 6 -16 2
-10 -22 4 -16 10 -38 15 -50 4 -11 10 -46 14 -78 7 -53 6 -58 -11 -54 -10 2
-34 31 -54 66 -19 34 -39 62 -43 62 -5 0 1 -15 12 -34 12 -18 21 -40 22 -47 1
-19 66 -72 79 -64 14 8 12 57 -4 135 -14 64 -9 84 18 74 16 -6 38 34 31 57 -4
10 -11 19 -16 19 -6 0 -6 -8 1 -20z"/>
<path d="M3736 2866 c3 -8 23 -26 45 -40 24 -16 41 -37 45 -54 10 -47 13 -52
36 -61 15 -5 27 -4 36 6 8 8 21 12 28 9 8 -3 14 -1 14 4 0 11 59 24 68 15 17
-17 -86 -171 -167 -249 -28 -27 -51 -52 -51 -56 0 -4 33 26 73 68 39 42 74 79
77 82 13 13 57 88 69 117 23 57 -6 68 -89 32 -58 -25 -80 -20 -80 17 0 18 -15
40 -51 75 -54 52 -61 57 -53 35z"/>
<path d="M3820 2864 c0 -8 5 -12 10 -9 6 4 8 11 5 16 -9 14 -15 11 -15 -7z"/>
<path d="M3295 2863 c-10 -3 -39 -20 -63 -39 -25 -19 -49 -31 -55 -27 -6 3 -7
1 -3 -6 4 -6 0 -14 -11 -18 -10 -4 -20 -10 -23 -13 -3 -4 -38 -31 -78 -60 -47
-34 -70 -56 -64 -62 9 -9 39 1 66 23 86 70 111 87 119 82 6 -3 7 -1 3 6 -4 6
0 14 9 18 10 3 27 15 39 27 12 12 37 33 56 48 19 15 33 27 30 26 -3 0 -14 -3
-25 -5z"/>
<path d="M1969 2834 c-7 -9 -12 -29 -11 -43 11 -99 64 -289 98 -353 10 -18 17
-37 16 -41 -1 -4 7 -3 18 3 15 8 18 15 11 28 -29 55 -83 250 -97 347 -9 68
-17 81 -35 59z"/>
<path d="M3830 2832 c0 -13 28 -42 41 -42 14 0 79 28 79 34 0 3 -19 -2 -42
-11 -40 -16 -41 -16 -60 6 -10 13 -18 19 -18 13z"/>
<path d="M4322 2795 c0 -16 2 -22 5 -12 2 9 2 23 0 30 -3 6 -5 -1 -5 -18z"/>
<path d="M4515 2722 c-10 -48 -31 -125 -47 -172 -17 -47 -30 -92 -31 -100 0
-8 -9 -23 -19 -34 -19 -21 -19 -37 -2 -43 11 -4 51 75 46 91 -2 4 4 16 12 25
17 20 55 143 71 234 9 51 9 70 0 77 -9 7 -17 -14 -30 -78z"/>
<path d="M2947 2621 c-11 -11 -28 -17 -45 -14 -22 3 -23 2 -8 -5 17 -8 14 -12
-30 -42 -27 -18 -67 -47 -88 -64 -22 -17 -45 -31 -52 -32 -24 -4 -74 -45 -67
-56 4 -7 0 -9 -11 -5 -10 4 -54 -13 -114 -43 -53 -27 -145 -69 -205 -94 l-107
-45 -27 42 c-15 23 -36 52 -47 65 -12 13 -19 24 -17 25 8 4 -11 47 -20 47 -14
0 -11 -11 9 -34 17 -21 17 -21 -6 -2 -40 34 -34 9 17 -73 l50 -82 -23 -9 c-44
-17 -160 -23 -205 -10 -37 10 -46 9 -59 -4 -14 -14 -12 -17 21 -31 20 -8 62
-15 94 -15 56 1 159 20 183 35 10 6 28 -11 106 -102 18 -21 22 -22 33 -9 11
13 6 24 -33 67 -47 52 -55 69 -35 69 8 0 7 6 -2 18 -13 15 -12 16 4 3 15 -12
26 -10 90 19 133 61 272 132 305 156 17 14 32 22 32 19 0 -6 51 25 168 103 75
51 88 56 130 53 68 -4 75 -13 67 -87 -6 -60 -5 -63 21 -81 15 -10 40 -30 55
-45 26 -24 29 -24 29 -7 0 10 -5 19 -10 19 -6 0 -28 11 -50 25 l-40 26 6 62
c8 77 -6 97 -68 97 -35 0 -39 2 -28 15 7 8 19 15 27 15 13 0 13 3 3 15 -16 19
-31 18 -53 -4z m-217 -164 c0 -2 -10 -12 -22 -23 l-23 -19 19 23 c18 21 26 27
26 19z"/>
<path d="M1879 2463 c-62 -52 -86 -150 -55 -225 22 -51 43 -66 63 -45 16 15
15 18 -5 40 -18 19 -22 35 -22 83 0 54 4 67 40 117 43 62 34 76 -21 30z"/>
<path d="M3762 2370 c0 -14 2 -19 5 -12 2 6 2 18 0 25 -3 6 -5 1 -5 -13z"/>
<path d="M4342 2288 c-27 -46 -79 -117 -115 -157 -36 -41 -63 -81 -60 -88 3
-8 0 -11 -9 -8 -8 3 -30 -8 -49 -25 -53 -48 -189 -145 -237 -169 -32 -16 -42
-27 -38 -38 5 -12 3 -13 -7 -5 -10 8 -20 5 -42 -13 -32 -28 -44 -33 -25 -10 8
10 -7 6 -45 -10 -59 -26 -273 -85 -309 -85 -19 0 -19 -1 -4 -16 15 -15 25 -15
129 11 116 28 192 56 203 74 4 5 12 8 19 5 18 -6 158 68 249 133 156 112 279
241 372 393 41 67 48 90 27 90 -4 0 -31 -37 -59 -82z"/>
<path d="M3762 2270 c-3 -91 -22 -129 -87 -168 -41 -25 -44 -30 -43 -67 l1
-40 4 37 c4 31 11 41 47 62 67 39 88 82 83 175 l-3 76 -2 -75z"/>
<path d="M3167 2314 c-3 -3 -2 -17 4 -31 15 -39 11 -67 -16 -103 -32 -44 -32
-96 -1 -158 13 -26 32 -75 41 -107 9 -33 23 -67 31 -74 8 -9 3 13 -11 54 -14
37 -25 74 -25 82 0 8 -9 27 -21 42 -12 16 -23 49 -26 72 -4 36 0 51 21 82 22
32 26 48 24 93 -3 51 -7 61 -21 48z"/>
<path d="M3960 2275 c-14 -17 0 -21 17 -4 18 18 33 1 28 -34 l-5 -32 11 28
c18 45 -22 77 -51 42z"/>
<path d="M3906 2221 c-17 -18 -24 -31 -17 -35 6 -4 11 0 11 8 0 9 7 16 15 16
8 0 15 7 15 16 0 8 5 12 10 9 6 -3 10 -1 10 4 0 18 -15 12 -44 -18z"/>
<path d="M3978 2172 c-8 -15 -21 -44 -28 -66 -12 -38 -94 -128 -106 -117 -3 3
-4 2 -3 -4 4 -13 -19 -55 -30 -55 -23 0 -4 153 21 171 4 3 1 14 -7 25 -14 18
-14 18 -15 -6 0 -15 -5 -31 -12 -38 -13 -13 -18 -155 -6 -167 11 -12 47 14 64
47 9 17 36 50 60 73 24 24 44 51 44 60 0 8 9 34 21 56 23 46 21 63 -3 21z"/>
<path d="M2333 2054 c-4 -11 0 -22 11 -30 10 -7 37 -30 60 -52 65 -61 278
-204 301 -202 3 0 16 -7 30 -16 32 -21 152 -62 249 -86 69 -16 82 -17 94 -5
12 13 3 17 -65 32 -112 24 -197 54 -297 106 -31 16 -41 18 -54 7 -10 -8 -13
-8 -9 -1 8 12 -18 35 -128 116 -38 28 -92 71 -118 96 -58 55 -65 58 -74 35z
m358 -261 c13 -16 12 -17 -3 -4 -10 7 -18 15 -18 17 0 8 8 3 21 -13z"/>
<path d="M3187 2039 c7 -7 15 -10 18 -7 3 3 -2 9 -12 12 -14 6 -15 5 -6 -5z"/>
<path d="M3630 1982 c0 -7 -22 -28 -48 -47 -30 -21 -58 -52 -72 -81 -26 -49
-61 -73 -139 -94 -23 -6 -41 -13 -38 -16 2 -3 34 5 71 17 68 22 82 34 129 109
13 19 37 44 54 55 33 21 58 53 49 63 -3 3 -6 0 -6 -6z"/>
<path d="M3252 1770 c3 -31 6 -35 33 -36 l30 -1 -28 4 c-22 3 -28 9 -24 23 2
10 0 24 -5 31 -6 10 -8 3 -6 -21z"/>
<path d="M3089 1664 c-6 -8 7 -13 43 -18 114 -13 290 -1 259 18 -22 14 -291
13 -302 0z"/>
<path d="M4336 1545 c-7 -19 5 -19 30 0 19 14 19 14 -2 15 -12 0 -24 -7 -28
-15z"/>
<path d="M4535 1549 c-10 -15 1 -23 20 -15 9 3 13 10 10 16 -8 13 -22 13 -30
-1z"/>
<path d="M1920 1450 l0 -70 49 0 c64 0 110 17 121 45 22 58 -23 95 -115 95
l-55 0 0 -70z m118 34 c43 -30 12 -84 -50 -84 -27 0 -28 2 -28 50 0 48 1 50
28 50 15 0 38 -7 50 -16z"/>
<path d="M2180 1513 c-51 -20 -66 -75 -29 -109 29 -26 109 -26 138 0 26 24 27
67 2 90 -20 19 -85 30 -111 19z m80 -33 c11 -11 20 -24 20 -30 0 -17 -39 -50
-60 -50 -21 0 -60 33 -60 50 0 17 39 50 60 50 11 0 29 -9 40 -20z"/>
<path d="M2360 1450 c0 -56 3 -70 15 -70 9 0 15 9 15 25 0 20 5 25 25 25 15 0
31 -9 41 -25 9 -14 25 -25 35 -25 27 0 24 17 -6 36 l-26 17 23 11 c13 6 24 22
26 34 4 28 -29 42 -99 42 l-49 0 0 -70z m99 41 c25 -16 4 -41 -34 -41 -31 0
-35 3 -35 25 0 21 5 25 28 25 15 0 33 -4 41 -9z"/>
<path d="M2591 1498 c-5 -13 -18 -44 -30 -70 -20 -48 -20 -48 0 -48 11 0 22 7
25 15 4 10 20 15 45 15 28 0 39 -4 39 -15 0 -9 9 -15 24 -15 l25 0 -31 70
c-28 63 -34 70 -60 70 -20 0 -31 -6 -37 -22z m58 -38 c10 -29 9 -30 -19 -30
-28 0 -29 1 -19 30 6 17 15 30 19 30 4 0 13 -13 19 -30z"/>
<path d="M2760 1450 l0 -72 66 4 c55 3 70 8 85 27 11 13 19 31 19 41 0 10 -8
28 -19 41 -15 19 -30 24 -85 27 l-66 4 0 -72z m105 40 c22 -8 26 -15 23 -42
-2 -27 -9 -34 -35 -41 -50 -15 -63 -4 -63 48 0 41 2 45 24 45 14 0 37 -4 51
-10z"/>
<path d="M3000 1507 c-60 -30 -44 -110 26 -123 47 -9 98 6 103 31 3 17 1 18
-13 6 -21 -17 -80 -18 -100 -2 -33 27 -11 72 36 74 13 1 35 -2 51 -6 20 -5 27
-4 27 7 0 26 -86 35 -130 13z"/>
<path d="M3195 1474 c19 -26 35 -57 35 -70 0 -15 6 -24 15 -24 9 0 15 9 15 24
0 13 16 44 35 70 32 41 34 46 16 46 -11 0 -30 -14 -42 -31 l-22 -32 -26 32
c-14 17 -34 31 -44 31 -15 0 -12 -8 18 -46z"/>
<path d="M3430 1450 c0 -63 2 -70 20 -70 13 0 20 7 20 20 0 16 7 20 36 20 51
0 74 15 74 50 0 38 -23 50 -94 50 l-56 0 0 -70z m105 36 c16 -12 17 -16 6 -30
-7 -9 -26 -16 -42 -16 -26 0 -29 4 -29 30 0 25 4 30 23 30 13 0 32 -6 42 -14z"/>
<path d="M3652 1510 c-29 -12 -44 -52 -32 -85 12 -32 53 -48 105 -41 102 13
97 123 -5 132 -25 2 -55 -1 -68 -6z m100 -33 c17 -26 8 -57 -18 -67 -62 -24
-113 33 -64 72 25 20 68 17 82 -5z"/>
<path d="M3840 1449 l0 -71 64 4 c73 4 106 25 106 67 0 50 -34 71 -114 71
l-56 0 0 -71z m118 35 c43 -30 12 -84 -50 -84 -27 0 -28 2 -28 50 0 48 1 50
28 50 15 0 38 -7 50 -16z"/>
<path d="M4060 1450 c0 -56 3 -70 15 -70 9 0 15 9 15 25 0 20 5 25 25 25 15 0
31 -9 41 -25 9 -14 25 -25 35 -25 27 0 24 17 -6 36 l-26 17 23 11 c13 6 24 22
26 34 4 28 -29 42 -99 42 l-49 0 0 -70z m99 41 c25 -16 4 -41 -34 -41 -31 0
-35 3 -35 25 0 21 5 25 28 25 15 0 33 -4 41 -9z"/>
<path d="M4282 1508 c-25 -13 -37 -46 -28 -82 12 -47 113 -60 157 -20 25 22
24 66 -1 89 -23 21 -97 29 -128 13z m98 -28 c11 -11 20 -24 20 -30 0 -16 -39
-50 -58 -50 -26 0 -62 29 -62 50 0 21 36 50 62 50 10 0 27 -9 38 -20z"/>
<path d="M4470 1503 c0 -8 21 -13 57 -15 l57 -3 -57 -39 c-80 -55 -76 -66 23
-66 67 0 80 3 80 16 0 14 -8 16 -55 11 -30 -3 -55 -3 -55 1 0 4 25 25 55 46
30 22 55 45 55 51 0 8 -26 11 -80 11 -55 -1 -80 -5 -80 -13z"/>
<path d="M4660 1514 c0 -3 14 -23 30 -44 17 -21 30 -50 30 -64 0 -19 5 -26 19
-26 14 0 18 5 14 20 -4 14 5 34 24 58 44 56 47 62 24 62 -11 0 -27 -13 -38
-30 -9 -16 -21 -30 -25 -30 -4 0 -15 14 -25 30 -15 26 -53 43 -53 24z"/>
</g>
</svg>
